<svg display="none" xmlns="http://www.w3.org/2000/svg">
	<symbol viewBox="0 0 79.5652 23.04" fill="none" id="logo-icon">
		<path id="Logo" d="M28.4163 0L23.9163 0L23.9163 22.6799L28.4163 22.6799L28.4163 0ZM31.3493 3.51001C31.3493 2.79004 31.5993 2.17993 32.0993 1.67993C32.6193 1.15991 33.2393 0.899902 33.9593 0.899902C34.6793 0.899902 35.2893 1.15991 35.7893 1.67993C36.3093 2.17993 36.5693 2.79004 36.5693 3.51001C36.5693 4.22998 36.3093 4.8501 35.7893 5.37012C35.2893 5.87012 34.6793 6.12012 33.9593 6.12012C33.2393 6.12012 32.6193 5.87012 32.0993 5.37012C31.5993 4.8501 31.3493 4.22998 31.3493 3.51001ZM55.8122 3.51001Q55.8122 2.93677 56.0235 2.4563Q56.2103 2.03198 56.5622 1.67993C57.0822 1.15991 57.7022 0.899902 58.4222 0.899902C59.1422 0.899902 59.7522 1.15991 60.2522 1.67993C60.7722 2.17993 61.0322 2.79004 61.0322 3.51001C61.0322 4.22998 60.7722 4.8501 60.2522 5.37012C59.7522 5.87012 59.1422 6.12012 58.4222 6.12012C57.7022 6.12012 57.0822 5.87012 56.5622 5.37012Q56.1846 4.97729 55.9971 4.50854Q55.8122 4.04614 55.8122 3.51001ZM9.17999 1.43994L13.05 1.43994L22.29 22.6799L17.01 22.6799L15.18 18.1799L6.92999 18.1799L5.15997 22.6799L0 22.6799L9.17999 1.43994ZM10.98 7.62012L8.40002 14.22L13.59 14.22L10.98 7.62012ZM63.9952 12.24C63.5751 13.1799 63.3652 14.23 63.3652 15.3899C63.3652 16.55 63.5751 17.6001 63.9952 18.54Q64.4684 19.5994 65.1957 20.4385Q65.4365 20.7163 65.7051 20.97C66.4451 21.6299 67.3052 22.1399 68.2852 22.5C69.2852 22.8601 70.3452 23.04 71.4651 23.04C72.5851 23.04 73.6351 22.8601 74.6152 22.5C75.6152 22.1399 76.4752 21.6299 77.1951 20.97C77.9352 20.29 78.5151 19.48 78.9352 18.54Q79.5652 17.1299 79.5652 15.3899Q79.5652 13.6499 78.9352 12.24C78.5151 11.3 77.9352 10.5 77.1951 9.84009C76.4752 9.15991 75.6152 8.63989 74.6152 8.28003C73.6351 7.91992 72.5851 7.73999 71.4651 7.73999C70.3452 7.73999 69.2852 7.91992 68.2852 8.28003Q67.1826 8.68506 66.2827 9.36011Q65.9827 9.58496 65.7051 9.84009C64.9852 10.5 64.4152 11.3 63.9952 12.24ZM31.7093 8.1001L36.2093 8.1001L36.2093 22.6799L31.7093 22.6799L31.7093 8.1001ZM42.7723 8.1001L37.9123 8.1001L43.9423 22.6799L48.7123 22.6799L54.4723 8.1001L49.9423 8.1001L46.5223 18L46.4623 18L42.7723 8.1001ZM56.1722 8.1001L60.6722 8.1001L60.6722 22.6799L56.1722 22.6799L56.1722 8.1001ZM68.7952 18.0601C68.1752 17.3799 67.8652 16.49 67.8652 15.3899C67.8652 14.29 68.1752 13.3999 68.7952 12.72Q68.9871 12.5161 69.2089 12.353Q70.097 11.7 71.4651 11.7C72.6052 11.7 73.4852 12.04 74.1052 12.72Q74.3083 12.9358 74.4684 13.1799Q75.0652 14.0891 75.0652 15.3899Q75.0652 16.6909 74.4684 17.6001Q74.3083 17.8442 74.1052 18.0601C73.4852 18.74 72.6052 19.0801 71.4651 19.0801Q70.097 19.0801 69.2089 18.427Q68.9871 18.2639 68.7952 18.0601Z" fill="#01996D" fill-opacity="1.000000" fill-rule="evenodd"/>
	</symbol>

	<symbol width="71.031281" height="72.017822" viewBox="0 0 71.0313 72.0178" id="play-icon">
		<path id="Vector" d="M35.5156 0C15.9311 0 0 16.1539 0 36.0089C0 55.8639 15.9311 72.0178 35.5156 72.0178C55.1002 72.0178 71.0313 55.8639 71.0313 36.0089C71.0313 16.1539 55.1002 0 35.5156 0ZM35.5156 69.0172C17.5641 69.0172 2.95959 54.2097 2.95959 36.0089C2.95959 17.8081 17.5641 3.0007 35.5156 3.0007C53.4671 3.0007 68.0717 17.8081 68.0717 36.0089C68.0717 54.2097 53.4671 69.0172 35.5156 69.0172Z"/>
		<path id="Vector" d="M49.635 34.7473L28.9176 21.244C28.4638 20.9437 27.8771 20.9275 27.4089 21.1883C26.9319 21.452 26.6371 21.9562 26.6371 22.5056L26.6371 49.5123C26.6371 50.0617 26.9319 50.5658 27.4089 50.8296C27.6285 50.9512 27.8742 51.0127 28.1169 51.0127C28.3944 51.0127 28.6748 50.9335 28.9176 50.7739L49.635 37.2705C50.057 36.9951 50.3142 36.5188 50.3142 36.0089C50.3142 35.499 50.057 35.0229 49.635 34.7473ZM29.5967 46.7635L29.5967 25.2544L46.0973 36.0089L29.5967 46.7635Z"/>
	</symbol>

</svg>
